PathFileType	4	(X/Y/Z)	C:/Users/Rosti/Documents/GitHub/TechForParalysis/Code/Model/04122019 - Marker Volunteer01/Rosti Data/New Session 103.trc	
DataRate	CameraRate	NumFrames	NumMarkers	Units	OrigDataRate	OrigDataStartFrame	OrigNumFrames	
100.00	100.00	20	14	mm	100.00	78	620	
Frame#	Time	C7			PX			T8			IJ			SC			AC			AI			TS			AA			GH			LE			ME			US			RS			
		X1	Y1	Z1	X2	Y2	Z2	X3	Y3	Z3	X4	Y4	Z4	X5	Y5	Z5	X6	Y6	Z6	X7	Y7	Z7	X8	Y8	Z8	X9	Y9	Z9	X10	Y10	Z10	X11	Y11	Z11	X12	Y12	Z12	X13	Y13	Z13	X14	Y14	Z14	

78	0.770	704.49243	14.57551	1533.59521	469.07083	-19.64864	1293.51306	768.02875	9.74655	1317.65112	539.49133	-14.62370	1434.84412	543.53510	10.58774	1442.17969	606.83691	160.03647	1472.48352	738.11365	95.31746	1452.55579	769.52686	92.57386	1334.23108	675.04132	210.00565	1426.18567	634.63293	221.60191	1439.15405	556.24261	253.39078	1148.97021	520.73480	167.82846	1131.83618	432.74365	283.62527	896.39429	423.30362	351.09390	932.75867 
79	0.780	704.48212	14.57710	1533.60046	469.05005	-19.65506	1293.50818	768.08875	9.74662	1317.65540	539.46252	-14.61146	1434.83313	543.50684	10.58371	1442.16907	606.82916	160.04016	1472.47461	738.09082	95.32700	1452.54199	769.51007	92.56119	1334.19690	675.01990	210.00455	1426.16296	634.60535	221.59000	1439.12671	556.18262	253.39513	1148.97644	520.70007	167.83038	1131.82471	432.72668	283.58057	896.37701	423.27747	351.05081	932.72931 
80	0.790	704.46887	14.58079	1533.59802	469.02295	-19.66639	1293.50952	768.13666	9.74572	1317.65552	539.43188	-14.59648	1434.82092	543.48016	10.57951	1442.18127	606.82153	160.03477	1472.46094	738.06927	95.33128	1452.52087	769.50165	92.53571	1334.15503	675.00098	209.99062	1426.13611	634.58142	221.57594	1439.10498	556.11853	253.38522	1148.99353	520.68719	167.84241	1131.80212	432.71280	283.55215	896.34308	423.24515	351.00861	932.70538 
81	0.800	704.44855	14.58904	1533.58997	468.98862	-19.67824	1293.51538	768.16248	9.74419	1317.65125	539.39923	-14.57895	1434.80688	543.45001	10.57796	1442.20728	606.80756	160.02469	1472.44324	738.04669	95.33254	1452.49658	769.50885	92.51284	1334.11670	674.97888	209.96880	1426.10901	634.55591	221.56416	1439.09216	556.04956	253.36000	1149.01758	520.66992	167.85724	1131.78076	432.68530	283.53781	896.30200	423.20261	350.97430	932.68988 
82	0.810	704.42181	14.60232	1533.58093	468.95029	-19.68514	1293.52063	768.15985	9.74251	1317.64258	539.36505	-14.55995	1434.79089	543.41522	10.58066	1442.22852	606.78552	160.01724	1472.42297	738.02179	95.33540	1452.47327	769.52838	92.50364	1334.09119	674.94897	209.95085	1426.08398	634.52100	221.55508	1439.08325	555.97656	253.31837	1149.02734	520.62695	167.86041	1131.77112	432.63092	283.53152	896.27026	423.14670	350.95346	932.68103 
83	0.820	704.39313	14.61823	1533.57617	468.91187	-19.68255	1293.52136	768.12622	9.74125	1317.63049	539.32983	-14.54145	1434.77368	543.38080	10.59112	1442.23193	606.75696	160.01643	1472.40210	737.99384	95.34295	1452.45447	769.55273	92.51506	1334.08337	674.91003	209.94583	1426.06274	634.47467	221.55081	1439.07166	555.90417	253.26883	1149.00305	520.54834	167.83998	1131.77917	432.54752	283.52356	896.25916	423.07642	350.94882	932.67780 
84	0.830	704.36670	14.63276	1533.57935	468.87552	-19.67025	1293.51819	768.06335	9.74100	1317.61572	539.29407	-14.52570	1434.75671	543.35059	10.60996	1442.21960	606.72339	160.02209	1472.38623	737.96149	95.35532	1452.44360	769.57141	92.54723	1334.09326	674.86462	209.95686	1426.04907	634.42297	221.55293	1439.05774	555.83923	253.23547	1148.95923	520.44019	167.79698	1131.80188	432.44043	283.50943	896.27362	422.99338	350.95969	932.68347 
85	0.840	704.34424	14.64284	1533.59155	468.84052	-19.65554	1293.51611	767.97601	9.74236	1317.59937	539.25793	-14.51450	1434.74121	543.32324	10.62780	1442.20703	606.68585	160.02960	1472.38147	737.92389	95.36996	1452.44312	769.57324	92.58934	1334.11475	674.81714	209.98230	1426.04736	634.37585	221.56082	1439.04895	555.78296	253.22554	1148.92859	520.32306	167.74594	1131.83008	432.31677	283.49197	896.31128	422.90036	350.98022	932.70300 
86	0.850	704.32434	14.64718	1533.61011	468.80399	-19.65142	1293.52063	767.87134	9.74583	1317.58215	539.22144	-14.50865	1434.72852	543.29382	10.62802	1442.20959	606.64545	160.03239	1472.38916	737.88202	95.38401	1452.45203	769.54681	92.62553	1334.13794	674.77179	210.01503	1426.05933	634.33447	221.57072	1439.04919	555.73187	253.22919	1148.92688	520.22449	167.70866	1131.85181	432.18173	283.47754	896.36133	422.79907	351.00107	932.73706 
87	0.860	704.30408	14.64569	1533.63000	468.76318	-19.66751	1293.53442	767.75684	9.75181	1317.56470	539.18457	-14.50795	1434.71973	543.26038	10.60596	1442.22754	606.60284	160.02763	1472.40527	737.83826	95.39561	1452.46509	769.47968	92.64211	1334.15198	674.73108	210.04260	1426.08032	634.28973	221.57480	1439.05493	555.67322	253.22943	1148.94641	520.15912	167.70329	1131.85864	432.03961	283.47089	896.40820	422.69012	351.01364	932.77930 
88	0.870	704.28101	14.63975	1533.64404	468.71805	-19.70205	1293.55444	767.63940	9.76057	1317.54761	539.14716	-14.51146	1434.71631	543.22540	10.57761	1442.24829	606.55963	160.01747	1472.42114	737.79504	95.40488	1452.47424	769.36688	92.63300	1334.15002	674.69421	210.05411	1426.10022	634.23694	221.56842	1439.05884	555.59094	253.21129	1148.96899	520.11035	167.73511	1131.85266	431.90207	283.47443	896.43811	422.57697	351.01611	932.82031 
89	0.880	704.25470	14.63203	1533.64661	468.67145	-19.74235	1293.57300	767.52472	9.77224	1317.53113	539.10938	-14.51798	1434.71973	543.19275	10.56153	1442.25781	606.51935	160.00700	1472.42847	737.75446	95.41367	1452.47107	769.21954	92.60220	1334.13184	674.65833	210.04840	1426.10754	634.18610	221.55733	1439.05566	555.48663	253.17287	1148.97546	520.04633	167.79309	1131.84314	431.78488	283.48904	896.44989	422.46625	351.01401	932.85150 
90	0.890	704.22681	14.62493	1533.63611	468.62576	-19.77290	1293.58142	767.41718	9.78682	1317.51563	539.07129	-14.52636	1434.73132	543.16333	10.55977	1442.25366	606.48553	160.00160	1472.42322	737.71735	95.42303	1452.45288	769.06531	92.56143	1334.10400	674.62378	210.03093	1426.09705	634.14886	221.54984	1439.04578	555.38562	253.14110	1148.96094	519.94128	167.85635	1131.84155	431.70084	283.51468	896.45801	422.36258	351.01587	932.86957 
91	0.900	704.19958	14.61978	1533.61719	468.58044	-19.78531	1293.57690	767.32037	9.80411	1317.50183	539.03278	-14.53583	1434.75073	543.13678	10.56508	1442.24023	606.45825	160.00246	1472.40918	737.68304	95.43202	1452.42505	768.93689	92.52402	1334.07581	674.59161	210.01045	1426.07422	634.12396	221.54681	1439.03259	555.31287	253.15269	1148.94250	519.78619	167.90509	1131.85828	431.64825	283.54950	896.47418	422.26682	351.02658	932.87726 
92	0.910	704.17340	14.61719	1533.59924	468.53275	-19.78164	1293.56604	767.23743	9.82376	1317.49036	538.99390	-14.54621	1434.77612	543.11005	10.56883	1442.22937	606.43262	160.00574	1472.39636	737.64911	95.43875	1452.39868	768.85431	92.49843	1334.05591	674.55682	209.99646	1426.05359	634.09967	221.54460	1439.02307	555.26190	253.19879	1148.93787	519.58948	167.92299	1131.90125	431.60614	283.58963	896.50110	422.17801	351.04462	932.88208 
93	0.920	704.14673	14.61761	1533.59106	468.48022	-19.77001	1293.55969	767.17120	9.84525	1317.48181	538.95471	-14.55781	1434.80444	543.07629	10.56915	1442.23462	606.39905	160.00545	1472.39673	737.61224	95.44276	1452.38599	768.81689	92.48608	1334.04883	674.51044	209.99358	1426.04944	634.06549	221.54295	1439.02649	555.21124	253.24614	1148.95544	519.37390	167.90021	1131.97522	431.54419	283.62640	896.53772	422.09042	351.06573	932.89471 
94	0.930	704.11835	14.62083	1533.59729	468.42471	-19.76126	1293.56445	767.12469	9.86791	1317.47681	538.91522	-14.57098	1434.83240	543.03394	10.57319	1442.25879	606.35120	159.99768	1472.41699	737.56934	95.44664	1452.39282	768.80518	92.48452	1334.05334	674.45099	209.99979	1426.06787	634.02057	221.54651	1439.04907	555.14893	253.27774	1148.99316	519.16608	167.84142	1132.07556	431.44827	283.65295	896.58258	421.99521	351.08853	932.92584 
95	0.940	704.08887	14.62555	1533.61499	468.37045	-19.76449	1293.57739	767.10101	9.89100	1317.47607	538.87531	-14.58567	1434.85645	542.98914	10.58101	1442.29138	606.29169	159.98337	1472.45276	737.51947	95.45475	1452.41528	768.78821	92.49124	1334.06299	674.38586	210.01051	1426.10413	633.97052	221.55678	1439.08521	555.07867	253.29585	1149.03979	518.98822	167.76970	1132.18408	431.32959	283.67230	896.63293	421.88910	351.11237	932.97632 
96	0.950	704.05939	14.63074	1533.63574	468.32059	-19.78046	1293.58911	767.10297	9.91373	1317.47998	538.83496	-14.60143	1434.87390	542.94708	10.58629	1442.31702	606.22949	159.96895	1472.48950	737.46527	95.47020	1452.44104	768.73560	92.50396	1334.06897	674.32074	210.02295	1426.14404	633.91797	221.56902	1439.12146	555.01044	253.30641	1149.08044	518.85461	167.71394	1132.27417	431.20593	283.69479	896.68359	421.77377	351.13586	933.03522 
97	0.960	704.02972	14.63680	1533.64954	468.27686	-19.80354	1293.59204	767.13287	9.93535	1317.48853	538.79395	-14.61763	1434.88342	542.90924	10.58627	1442.32373	606.17126	159.96156	1472.50940	737.41132	95.49292	1452.45728	768.63348	92.51997	1334.06323	674.25818	210.03465	1426.17163	633.86481	221.57895	1439.14551	554.94952	253.31291	1149.10181	518.76752	167.69164	1132.32629	431.09027	283.73026	896.72583	421.65198	351.15903	933.08777 
